/* XPM */
static const char *about_button_xpm[] = {
/* columns rows colors chars-per-pixel */
"24 24 38 1",
"  c #1C5DBA",
". c #1E63C6",
"X c #1E64C8",
"o c #266CD0",
"O c #276DD1",
"+ c #286ED1",
"@ c #286ED2",
"# c #2B71D5",
"$ c #2C72D5",
"% c #2D73D6",
"& c #2D73D7",
"* c #2E74D7",
"= c #2F75D8",
"- c #3076D9",
"; c #3177DA",
": c #3177DB",
"> c #3278DC",
", c #347ADD",
"< c #357BDE",
"1 c #367CDF",
"2 c #377DE0",
"3 c #4886DF",
"4 c #4987DF",
"5 c #4F8ADE",
"6 c #4987E0",
"7 c #4A88E0",
"8 c #4B89E1",
"9 c #4B89E2",
"0 c #4C8AE3",
"q c #4D8BE3",
"w c #4D8BE4",
"e c #4E8CE4",
"r c #4E8CE5",
"t c #649AE8",
"y c #8FB2E4",
"u c #97BAEB",
"i c #FFFFFF",
"p c None",
/* pixels */
"pppppppppppppppppppppppp",
"pppppppppppppppppppppppp",
"pppppppppppppppppppppppp",
"ppppXXXXXXXXXXXXXXXXXppp",
"pppXX5ttttttttttttt5XXpp",
"pppX5teeeewweererrrr:Xpp",
"pppXte2222XXX22222211Xpp",
"pppXtw1122Xiii2211111Xpp",
"pppXte1<22<iii1111111Xpp",
"pppXt8<<,,<<<<<<<1<<<Xpp",
"pppXt8<,,XXXX,<,,,,,,Xpp",
"pppXt8,:>Oiiii>>:,:::Xpp",
"pppXt8::::yiii:::::::Xpp",
"pppXt8::::Xiii:::::::Xpp",
"pppXt7==*oXiii**=====Xpp",
"pppXt4***Xyiiiu******Xpp",
"pppXt6&&&&iiiii&&&&&&Xpp",
"pppXt7&&$&&$$&$&$&&*$Xpp",
"pppX53&$#$&#$$$$$$$$+Xpp",
"pppXXo#####&$###$##oXXpp",
"pppp XXXXXXXXXXXXXXX ppp",
"pppppppppppppppppppppppp",
"pppppppppppppppppppppppp",
"pppppppppppppppppppppppp"
};
