/* XPM */
static const char *about_button_xpm[] = {
/* columns rows colors chars-per-pixel */
"24 24 106 2",
"   c #0A5EB3",
".  c #0064B7",
"X  c #0A60B4",
"o  c #0066BC",
"O  c #0A64BB",
"+  c #1267BA",
"@  c #1A6ABA",
"#  c #2D76BF",
"$  c #0767C1",
"%  c #0D6DC6",
"&  c #026BCC",
"*  c #0A6ECB",
"=  c #136EC5",
"-  c #0D72CE",
";  c #1E73C4",
":  c #1270C8",
">  c #1D79CD",
",  c #016FD1",
"<  c #0172D5",
"1  c #0A75D5",
"2  c #0D78D7",
"3  c #0176DB",
"4  c #0278DD",
"5  c #0B7ADB",
"6  c #1577D0",
"7  c #1A7CD3",
"8  c #157FDC",
"9  c #2D79C3",
"0  c #3A7FC3",
"q  c #237FD4",
"w  c #007BE3",
"e  c #007EE9",
"r  c #1B82DC",
"t  c #3182CE",
"y  c #3A83C9",
"u  c #2882D3",
"i  c #2987DA",
"p  c #2988DC",
"a  c #3386D3",
"s  c #3689D4",
"d  c #3989D3",
"f  c #318BDB",
"g  c #398EDA",
"h  c #0181EC",
"j  c #0986ED",
"k  c #1F87E2",
"l  c #1E89E5",
"z  c #1088EC",
"x  c #1C8DEB",
"c  c #218BE6",
"v  c #248EE8",
"b  c #2792EB",
"n  c #2D95EC",
"m  c #3297EC",
"M  c #3599ED",
"N  c #4688C8",
"B  c #498BCB",
"V  c #5892CD",
"C  c #468DD0",
"Z  c #4791D5",
"A  c #4A91D3",
"S  c #4996DB",
"D  c #4F99DB",
"F  c #5895D1",
"G  c #5698D6",
"H  c #5898D5",
"J  c #569BDA",
"K  c #599DDC",
"L  c #659FD5",
"P  c #65A0D7",
"I  c #69A1D7",
"U  c #65A2DB",
"Y  c #69A4DB",
"T  c #76A7D7",
"R  c #74A7D8",
"E  c #76ABDD",
"W  c #7BACDB",
"Q  c #7FB5E6",
"!  c #7FB7E9",
"~  c #7FB9EB",
"^  c #81AFDD",
"/  c #85B2DD",
"(  c #8AB4DD",
")  c #84B5E2",
"_  c #83B8E7",
"`  c #89B9E6",
"'  c #80B7E9",
"]  c #82BAEC",
"[  c #93BDE4",
"{  c #99BDE2",
"}  c #93BFE8",
"|  c #91C2ED",
" . c #97C6F0",
".. c #9DC9F0",
"X. c #A3C7E8",
"o. c #BFD6EC",
"O. c #BFDBF3",
"+. c #C7DCEF",
"@. c #C1DAF1",
"#. c #CCDFF1",
"$. c #CFE0F1",
"%. c #D4E3F2",
"&. c #E7EFF8",
"*. c #EDF4FB",
"=. c #FEFFFF",
"-. c None",
/* pixels */
"-.-.-.-.-.-.-.-.-.-.-.-.-.-.-.-.-.-.-.-.-.-.-.-.",
"-.-.-.-.-.-.-.-.-.-.-.-.-.-.-.-.-.-.-.-.-.-.-.-.",
"-.-.-.-.-.-.-.-.  @ # # 0 9 # X -.-.-.-.-.-.-.-.",
"-.-.-.-.-.-.X # V W ^ ( ( / W F 9 O -.-.-.-.-.-.",
"-.-.-.-.-.+ N T ( ^ [ o.@.{ ^ ( E C = -.-.-.-.-.",
"-.-.-.-.+ B T W T ^ #.=.=.%./ E Q E Z : -.-.-.-.",
"-.-.-.O y L I I L ^ &.=.=.*.) U U Y U d * -.-.-.",
"-.-.-.; A H H H G L +.=.=.#.Y J K K K J 7 -.-.-.",
"-.-.$ 9 A A A A A A Y X.X.Y S S S S S S f 1 -.-.",
"-.-.* a d d d d d s d d s s g g g g g g f 5 -.-.",
"-.-.$ > q q q u a ) [ [ [ K u i i p p p r 1 -.-.",
"-.-.& * * > 7 7 u @.*.=.=.` 7 r 8 r r 5 4 3 -.-.",
"-.-.& , , , , 1 1 q } =.=._ 1 4 4 4 4 3 3 w -.-.",
"-.-., , , , , , < < _ =.=.! 3 3 3 3 4 w w w -.-.",
"-.-.< < < 3 3 3 3 < ' =.=.! 3 w w w w w w e -.-.",
"-.-.< 3 < 3 3 3 3 3 ' =.=.] 3 w w e e e e e -.-.",
"-.-.-.3 3 3 w 3 w 3 ! =.=.~ w w e e e h h -.-.-.",
"-.-.-.w w w w w w k | =.=.| c h e h h h h -.-.-.",
"-.-.-.-.w e e e k O.*.=.=.*.@.c h h h h -.-.-.-.",
"-.-.-.-.-.e e e x ~  .......] v h h h -.-.-.-.-.",
"-.-.-.-.-.-.h h j x b m M n x z h h -.-.-.-.-.-.",
"-.-.-.-.-.-.-.-.h h j j j j j h -.-.-.-.-.-.-.-.",
"-.-.-.-.-.-.-.-.-.-.o o o . -.-.-.-.-.-.-.-.-.-.",
"-.-.-.-.-.-.-.-.-.-.-.-.-.-.-.-.-.-.-.-.-.-.-.-."
};
