/* XPM */
static const char *config_xpm[] = {
/* columns rows colors chars-per-pixel */
"24 24 154 2",
"   c #587087",
".  c #597188",
"X  c #5A7188",
"o  c #5A7189",
"O  c #5D748C",
"+  c #5E758D",
"@  c #5D768D",
"#  c #5E778F",
"$  c #607991",
"%  c #627A92",
"&  c #647C95",
"*  c #667E97",
"=  c #688096",
"-  c #6A8097",
";  c #688299",
":  c #6A829A",
">  c #6C839B",
",  c #6B849B",
"<  c #6D859C",
"1  c #6D869E",
"2  c #6F869E",
"3  c #6F88A0",
"4  c #6F8BAB",
"5  c #7088A0",
"6  c #728AA1",
"7  c #708AA2",
"8  c #738CA3",
"9  c #768DA3",
"0  c #728BA4",
"q  c #758DA5",
"w  c #748EA6",
"e  c #778FA7",
"r  c #708BAB",
"t  c #708CAB",
"y  c #708CAC",
"u  c #718CAC",
"i  c #718DAC",
"p  c #728DAD",
"a  c #728EAD",
"s  c #738EAD",
"d  c #738FAE",
"f  c #7690A8",
"g  c #7791AB",
"h  c #7791AF",
"j  c #7890A9",
"k  c #7992AA",
"l  c #7B94AC",
"z  c #7A95AD",
"x  c #7B95AE",
"c  c #7D95AE",
"v  c #7E96AF",
"b  c #7791B0",
"n  c #7792B0",
"m  c #7892B0",
"M  c #7993B1",
"N  c #7A94B2",
"B  c #7B94B2",
"V  c #7B95B2",
"C  c #7C97B0",
"Z  c #7E97B3",
"A  c #7E98B2",
"S  c #7E99B2",
"D  c #7F98B4",
"F  c #8297AE",
"G  c #819AB1",
"H  c #829AB3",
"J  c #8199B5",
"K  c #839BB4",
"L  c #839BB6",
"P  c #849BB6",
"I  c #829CB5",
"U  c #829CB6",
"Y  c #839CB6",
"T  c #839EB7",
"R  c #849DB5",
"E  c #849CB7",
"W  c #859CB7",
"Q  c #859EB7",
"!  c #859EB8",
"~  c #869EB8",
"^  c #879EB9",
"/  c #889FB9",
"(  c #8DA2BB",
")  c #8DA3BC",
"_  c #8EA4BD",
"`  c #8FA5BD",
"'  c #90A5BD",
"]  c #90A6BE",
"[  c #93A7BF",
"{  c #93A8C0",
"}  c #96AAC1",
"|  c #98ACC3",
" . c #9AAEC4",
".. c #9DB0C6",
"X. c #9EB1C6",
"o. c #9FB1C6",
"O. c #9FB2C7",
"+. c #A2B4C9",
"@. c #A6B7CB",
"#. c #A8B9CC",
"$. c #AABACD",
"%. c #ABBCCE",
"&. c #AEBED0",
"*. c #AFBFD1",
"=. c #B1C1D2",
"-. c #B7C5D5",
";. c #B9C7D7",
":. c #BBC8D7",
">. c #BBC9D7",
",. c #BCC9D8",
"<. c #C0CDDA",
"1. c #C1CDDB",
"2. c #C2CEDC",
"3. c #C4CFDC",
"4. c #C5D0DD",
"5. c #C6D1DD",
"6. c #C6D1DE",
"7. c #CAD4E0",
"8. c #CBD5E0",
"9. c #CBD5E1",
"0. c #CCD5E1",
"q. c #CCD6E1",
"w. c #CED8E3",
"e. c #CFD8E3",
"r. c #D2DBE5",
"t. c #D4DCE5",
"y. c #DBE2EA",
"u. c #E2E8EE",
"i. c #E4E9EF",
"p. c #E6EAF0",
"a. c #E7EBF1",
"s. c #EAEEF2",
"d. c #EEF2F5",
"f. c #EFF2F5",
"g. c #EFF2F6",
"h. c #F0F3F6",
"j. c #F1F4F7",
"k. c #F3F5F7",
"l. c #F4F6F9",
"z. c #F5F7F9",
"x. c #F6F8FA",
"c. c #F7F8FA",
"v. c #F8F9FB",
"b. c #F9FAFB",
"n. c #F9FAFC",
"m. c #FAFBFC",
"M. c #FCFDFD",
"N. c #FDFDFE",
"B. c #FDFEFE",
"V. c #FEFEFE",
"C. c #FEFEFF",
"Z. c #FEFFFF",
"A. c #FFFFFF",
"S. c None",
/* pixels */
"S.I ~ ~ ~ ~ ~ ~ ~ ~ ~ ~ ~ ~ ~ ~ ~ ~ ~ ~ ~ R J S.",
"I [ J D D D D D D D D D D D D D D D D D D ~ [ S ",
"I J i 4 4 4 4 4 4 4 4 r 4 4 4 4 4 4 4 4 4 u ) S ",
"R D 4 4 4 4 4 4 4 4 ~ { { V 4 4 4 4 4 4 4 u ) V ",
"H D 4 4 4 4 r t 4 r r.B.B.X.r 4 i 4 4 4 4 t ( z ",
"H D 4 4 4 4 +.,.i u q.B.B.+.4 V r.) 4 4 4 4 ) z ",
"c J 4 4 4 X.v.B.6.q.m.B.B.k.2.8.B.v.{ 4 4 t ) h ",
"c S 4 4 t =.B.B.B.B.B.B.B.B.B.B.B.B.#.t 4 t ) f ",
"l D 4 4 t i ,.B.B.B.B.B.B.B.B.B.B.%.s 4 4 t ) w ",
"k D 4 u 4 r 6.B.B.B.u.1.6.h.B.B.B.*.u 4 4 t ) 0 ",
"j D r ~ e.e.v.B.B.a.R 4 i | m.B.B.j.q.7.h t ) 6 ",
"e D i { B.B.B.B.B.q.u 4 r i p.B.B.B.B.m.V r ) 3 ",
"e D 4 { B.B.B.B.B.t.i 4 4 M d.B.B.B.B.m.V i ) 2 ",
"6 D 4 V X.X.a.B.B.z.$.M Z 3.B.B.B.y.+.X.i 4 ) , ",
"6 D 4 4 4 4 *.B.B.B.B.z.z.B.B.B.B.{ 4 4 4 i ) : ",
"3 D 4 4 4 Z q.B.B.B.B.B.B.B.B.B.B.1.V 4 4 4 ) & ",
"2 D 4 4 i q.B.B.B.B.B.B.B.B.B.B.B.B.,.i 4 t ) & ",
"2 D 4 4 4 / z.B.$. .s.B.B.t.) ;.B.h.I 4 4 t ) % ",
": D 4 4 4 4 [ +.i u r.B.B.X.r n ;.J r 4 4 4 ) % ",
": D 4 4 4 4 4 4 4 u q.B.B.+.4 4 r 4 r 4 4 i ) @ ",
"- D 4 4 4 4 4 4 4 4 n V Z i 4 4 4 4 4 4 4 i ) @ ",
"- P i 4 4 4 t r t t t t 4 t t 4 t t t r t i ( O ",
"@ F ) ) ) ) ( ) ) ) ) ) ) ) ) ) ) ) ) ) ) ) 9 S.",
"S.  X X X X X X X X X X X X X X X X X X X X S.S."
};
