/* XPM */
static const char *config_xpm[] = {
/* columns rows colors chars-per-pixel */
"24 24 161 2",
"   c #6C6D69",
".  c #747672",
"X  c #7B7C78",
"o  c #80817D",
"O  c #838480",
"+  c #868883",
"@  c #888A85",
"#  c #898B86",
"$  c #8A8C87",
"%  c #8A8C88",
"&  c #8B8C88",
"*  c #8B8D88",
"=  c #8B8D89",
"-  c #8C8D89",
";  c #8C8E89",
":  c #8D8E8A",
">  c #8D8F8A",
",  c #8D8F8B",
"<  c #8E8F8B",
"1  c #8E908B",
"2  c #8E908C",
"3  c #8F908C",
"4  c #8F918C",
"5  c #8F918D",
"6  c #90918D",
"7  c #90928D",
"8  c #91938F",
"9  c #92948F",
"0  c #939490",
"q  c #939590",
"w  c #959793",
"e  c #979994",
"r  c #979895",
"t  c #989A96",
"y  c #989A97",
"u  c #9D9E9A",
"i  c #A1A29E",
"p  c #A2A3A0",
"a  c #A3A5A0",
"s  c #A3A4A2",
"d  c #A5A7A3",
"f  c #A6A7A4",
"g  c #A6A7A5",
"h  c #A6A7A6",
"j  c #A6A8A4",
"k  c #A8AAA7",
"l  c #A9AAA7",
"z  c #A9ABA7",
"x  c #A9ABA8",
"c  c #AAAAA9",
"v  c #ABACA8",
"b  c #ABACA9",
"n  c #ACADA9",
"m  c #ACAEAA",
"M  c #AEAFAE",
"N  c #B0B0AE",
"B  c #B0B1AF",
"V  c #B1B2AE",
"C  c #B1B2AF",
"Z  c #B1B1B0",
"A  c #B1B1B1",
"S  c #B1B2B1",
"D  c #B2B3B0",
"F  c #B2B2B1",
"G  c #B4B5B2",
"H  c #B4B4B3",
"J  c #B5B6B3",
"K  c #B6B6B4",
"L  c #B6B7B5",
"P  c #B6B6B6",
"I  c #B7B7B7",
"U  c #B7B8B7",
"Y  c #B8BAB7",
"T  c #BABAB8",
"R  c #BBBBB9",
"E  c #BABABA",
"W  c #BBBBBB",
"Q  c #BDBDBD",
"!  c #BEC0BD",
"~  c #C0C0C0",
"^  c #C2C2C1",
"/  c #C2C2C2",
"(  c #C6C6C4",
")  c #C6C7C4",
"_  c #C6C6C5",
"`  c #C7C7C7",
"'  c #C9CAC7",
"]  c #C8C9C8",
"[  c #CCCCCB",
"{  c #CCCCCC",
"}  c #CECECC",
"|  c #CECECD",
" . c #CFCFCF",
".. c #D1D1CF",
"X. c #D2D2D1",
"o. c #D3D3D1",
"O. c #D3D3D3",
"+. c #D4D5D3",
"@. c #D5D6D4",
"#. c #D6D6D5",
"$. c #D6D7D6",
"%. c #D7D8D6",
"&. c #D8D8D7",
"*. c #D8D8D8",
"=. c #D9D9D8",
"-. c #DBDBDA",
";. c #DBDBDB",
":. c #DCDDDA",
">. c #DCDDDB",
",. c #DDDDDC",
"<. c #DEDFDD",
"1. c #DEDEDE",
"2. c #DFDFDF",
"3. c #E0E0DE",
"4. c #E0E1DF",
"5. c #E0E0E0",
"6. c #E1E1E0",
"7. c #E2E2E1",
"8. c #E2E3E1",
"9. c #E3E3E1",
"0. c #E3E3E2",
"q. c #E3E3E3",
"w. c #E4E4E2",
"e. c #E4E4E4",
"r. c #E6E6E5",
"t. c #E8E8E7",
"y. c #E9E9E7",
"u. c #E8E8E8",
"i. c #E9E9E9",
"p. c #EAEAE9",
"a. c #EBEBE9",
"s. c #EBEBEA",
"d. c #EBECEB",
"f. c #EDEDEB",
"g. c #ECECEC",
"h. c #EDEDEC",
"j. c #EEEEED",
"k. c #EEEEEE",
"l. c #EFEFEF",
"z. c #F0F0EF",
"x. c #F1F1EF",
"c. c #F0F0F0",
"v. c #F1F1F0",
"b. c #F2F2F1",
"n. c #F3F3F2",
"m. c #F3F3F3",
"M. c #F4F4F3",
"N. c #F4F4F4",
"B. c #F5F5F4",
"V. c #F6F6F5",
"C. c #F6F6F6",
"Z. c #F7F7F6",
"A. c #F7F7F7",
"S. c #F8F8F7",
"D. c #F9F9F9",
"F. c #FAFAF9",
"G. c #FAFAFA",
"H. c #FBFBFA",
"J. c #FBFBFB",
"K. c #FCFCFC",
"L. c None",
/* pixels */
"L.L.L.L.L.L.L.L.L.L.L.L.L.L.L.L.L.L.L.L.L.L.L.L.",
"L.L.L.L.L.L.L.L.L.L.L.; 1 L.L.L.L.L.L.L.L.L.L.L.",
"L.L.L.L.L.L.L.; ; L.; | t L.; t , L.L.L.L.L.L.L.",
"L.L.L.L.L.L.L.$ h.; 9 V.9.$ m a.7 L.L.L.L.L.L.L.",
"L.L.L.L.; ; L.2 K.D.S.A.D.S.D.M.; ; , ; L.L.L.L.",
"L.L.L.L.1 u.) w.S.A.H.H.D.D.b.D.9.1.9.; L.L.L.L.",
"L.L.L.L.1 <.S.S.D.:.D 9 0 C $.V.h.b.! L.L.L.L.L.",
"L.L.1 7 ; 4.V.M.m 6 L.L.L.L.; x f.h.$.= $ = L.L.",
"L.L.0 4.u.V.V.v * L.L.L.L.L.L.; j h.r.u.$.= L.L.",
"L.L.1 a V.b.o.1 L.L.L.L.L.L.L.L.; ] 2.9.= L.L.L.",
"L.L.L.$ y.b.l L.L.L.L.L.L.L.L.L.L.g 9.*.; = L.L.",
"L.1 9 ' f.x.2 L.L.L.L.L.L.L.L.L.L.7 9.O.[ v $ L.",
"L.; J :.u.x.7 L.L.L.L.L.L.L.L.L.L.w 9. .J 1 = L.",
"L.L.; ; =.l.l L.L.L.L.L.L.L.L.L.L.Z =.~ $ L.L.L.",
"L.L.L.; $.a.X.; L.L.L.L.L.L.L.L.; +.O.~ 7 = L.L.",
"L.L.$ _ *.:.b.d $ L.L.L.L.L.L.$ I i.Q D x # L.L.",
"L.L.; $ $ J 9.M.x ; L.L.L.L.= T V._ g = = = L.L.",
"L.L.L.L.L.i | 1.J.=.I r u T e.N.` I p = L.L.L.L.",
"L.L.L.L.= T C C | 9.h.D.V.u.*.E s r g # L.L.L.L.",
"L.L.L.L.$ $ + $ U ~ I Q Q D D H @ . @ @ L.L.L.L.",
"L.L.L.L.L.L.L.+ C 2 $ p M $ @ g $ L.L.L.L.L.L.L.",
"L.L.L.L.L.L.L.o $ X L.$ r   L.$ + L.L.L.L.L.L.L.",
"L.L.L.L.L.L.L.L.L.L.L.O @ L.L.L.L.L.L.L.L.L.L.L.",
"L.L.L.L.L.L.L.L.L.L.L.L.L.L.L.L.L.L.L.L.L.L.L.L."
};
