/* XPM */
static const char *icon_xpm[] = {
/* columns rows colors chars-per-pixel */
"32 32 142 2",
"*  c Black",
"u  c #0F0F0F",
"O  c #D9D9D9",
"t. c #1E1E1E",
"'  c #F7F7F7",
"%  c #4B4B4B",
"-. c #5A5A5A",
"n  c #696969",
".. c #787878",
"7. c #969696",
"R  c #D2D2D2",
">  c #E1E1E1",
":. c #262626",
"   c #FFFFFF",
"<  c #444444",
"_  c #808080",
"@  c #BCBCBC",
"Z  c #010101",
"J  c #DADADA",
"h  c #1F1F1F",
"g. c #E9E9E9",
"4  c #2E2E2E",
"t  c #F8F8F8",
"P  c #A6A6A6",
"6  c #C4C4C4",
"q. c #181818",
"7  c #272727",
"8  c #F1F1F1",
":  c #363636",
"j. c #454545",
"M  c #545454",
"w. c #818181",
"v  c #9F9F9F",
"X. c #020202",
",. c #CCCCCC",
"K  c #111111",
"#. c #EAEAEA",
",  c #2F2F2F",
"U  c #4D4D4D",
"e. c #6B6B6B",
"2  c #7A7A7A",
"O. c #B6B6B6",
"x  c #0A0A0A",
"(  c #D4D4D4",
".  c #E3E3E3",
"{  c #555555",
"[  c #646464",
"g  c #737373",
"l. c #A0A0A0",
"!  c #BEBEBE",
"D  c #030303",
"=. c #EBEBEB",
"e  c #303030",
"k  c #FAFAFA",
"#  c #3F3F3F",
"$  c #4E4E4E",
";. c #6C6C6C",
"o. c #8A8A8A",
"^  c #999999",
"$. c #A8A8A8",
"*. c #C6C6C6",
"&  c #0B0B0B",
"<. c #292929",
"u. c #F3F3F3",
"S  c #383838",
"m  c #565656",
"Q  c #747474",
"V  c #B0B0B0",
"o  c #BFBFBF",
"h. c #040404",
"=  c #131313",
"r  c #DDDDDD",
"p. c #222222",
"3  c #ECECEC",
"p  c #FBFBFB",
"s. c #6D6D6D",
"0  c #7C7C7C",
"E  c #A9A9A9",
"8. c #B8B8B8",
"j  c #C7C7C7",
"0. c #1B1B1B",
"k. c #E5E5E5",
"F  c #F4F4F4",
"1. c #393939",
"f. c #575757",
"a  c #666666",
"+. c #757575",
"A  c #848484",
"6. c #C0C0C0",
"d. c #050505",
"5. c #141414",
"}  c #DEDEDE",
"N  c #232323",
"d  c #EDEDED",
"+  c #FCFCFC",
"~  c #505050",
"@. c #7D7D7D",
"x. c #9B9B9B",
"l  c #AAAAAA",
"q  c #B9B9B9",
"H  c #0D0D0D",
" . c #D7D7D7",
"L  c #2B2B2B",
"&. c #3A3A3A",
"s  c #585858",
"a. c #767676",
"%. c #A3A3A3",
"c. c #B2B2B2",
">. c #C1C1C1",
"c  c #060606",
"z. c #DFDFDF",
"G  c #242424",
"9  c #EEEEEE",
"/  c #333333",
"r. c #FDFDFD",
"y  c #515151",
"z  c #606060",
"-  c #6F6F6F",
"b  c #ABABAB",
"Y  c #BABABA",
"9. c #D8D8D8",
"4. c #E7E7E7",
"B  c #2C2C2C",
"C  c #F6F6F6",
"i. c #3B3B3B",
"w  c #595959",
"W  c #686868",
"`  c #959595",
"i  c #A4A4A4",
"3. c #B3B3B3",
"X  c #C2C2C2",
"]  c #070707",
"T  c #D1D1D1",
"5  c #161616",
"y. c #E0E0E0",
"|  c #252525",
";  c #EFEFEF",
"f  c #FEFEFE",
")  c #616161",
"I  c #707070",
"2. c #8E8E8E",
"1  c #9D9D9D",
/* pixels */
"                                                                ",
"                                                                ",
"                                                                ",
"            . X o O +                                           ",
"        @ # $ % & * = - ;                                       ",
"      O : ;     > , * * <                                       ",
"      1 2         3 4 * 5                                       ",
"      6 7 8         9 0 q                                       ",
"        w e r                                                   ",
"        t y u i                                                 ",
"          p a * s d                                             ",
"            f g * h j                                           ",
"          k l z x * c v             b n m M M M M M M M M 2     ",
"        @ N B V C w * Z i         A * * * * * * * * * * * S     ",
"      i D : F     F G * H >     J K 2 i y L P P I * U P P Y     ",
"    T c * R         E * * W     Q !     W ~     ^ * A           ",
"    ~ * /           p 5 * K +   (       % )     _ * `           ",
"  ' ] * [             { * * }           | Q     W * P           ",
"   .* * ..            ..* * (         ; X.o.    ~ * O.          ",
"  T * * +.            @.* Z #.        $.* %.    &.* *.          ",
"  =.Z * -.            ;.* :.          # * >.    | * ,.          ",
"    <.* N f           1.* 2.        3.* * 4.    5.* 6.    *.    ",
"    7.* * 8.        9.X., t       d 0.* q.f     H * w.  =.e.    ",
"    r.% * t.y.    u.i.p.>         a.* * {       L * Z / 5.$.    ",
"      t s.d.K e.+.N f.g.          ;.* * q       E h.* * j.+     ",
"          k.%.2.l.z.              C %.>.           .x.c.p       ",
"                                                                ",
"                                                                ",
"                                                                ",
"                                                                ",
"                                                                ",
"                                                                "
};
