/* XPM */
static const char *log_xpm[] = {
/* columns rows colors chars-per-pixel */
"24 24 152 2",
"   c #656666",
".  c #696969",
"X  c #6E6E6E",
"o  c #797979",
"O  c #7C7C7C",
"+  c #7F7D7E",
"@  c #7E7E7E",
"#  c #7F7E7E",
"$  c #7F7F7F",
"%  c #898889",
"&  c #898989",
"*  c #8A8989",
"=  c #89898A",
"-  c #8A898A",
";  c #8A8A8A",
":  c #8A8B8B",
">  c #8D8D8D",
",  c #8F9090",
"<  c #919191",
"1  c #919192",
"2  c #989797",
"3  c #979798",
"4  c #9F9E9E",
"5  c #A0A0A0",
"6  c #A0A0A1",
"7  c #A4A3A3",
"8  c #A5A4A4",
"9  c #A4A4A5",
"0  c #A5A5A5",
"q  c #A6A6A7",
"w  c #A7A8A8",
"e  c #A8A9A9",
"r  c #B2B3B3",
"t  c #B4B3B3",
"y  c #B4B4B4",
"u  c #B5B5B5",
"i  c #B6B5B5",
"p  c #B6B6B6",
"a  c #B7B6B6",
"s  c #B8B8B8",
"d  c #B9B9B9",
"f  c #BABABA",
"g  c #BBBCBD",
"h  c #BDBDBD",
"j  c #BEBEBF",
"k  c #BFC0C0",
"l  c #C0C0C0",
"z  c #C0C1C1",
"x  c #C1C1C2",
"c  c #C1C2C3",
"v  c #C2C2C2",
"b  c #C3C3C3",
"n  c #C5C4C5",
"m  c #C8C8C9",
"M  c #C8C9CA",
"N  c #D5D5D5",
"B  c #D6D6D7",
"V  c #D7D7D7",
"C  c #DCDBDC",
"Z  c #DCDCDD",
"A  c #E0E0E1",
"S  c #E2E2E3",
"D  c #E5E5E5",
"F  c #E6E6E6",
"G  c #E7E7E7",
"H  c #E7E7E8",
"J  c #E8E8E8",
"K  c #E9E8E8",
"L  c #EAE9EA",
"P  c #E9EAEA",
"I  c #EAEAEB",
"U  c #EBEBEB",
"Y  c #EBEBEC",
"T  c #EBECED",
"R  c #ECEDED",
"E  c #EEEDED",
"W  c #EDEDEE",
"Q  c #EEEDEE",
"!  c #EFECEF",
"~  c #EFEEEE",
"^  c #EEEEEF",
"/  c #EEEFEF",
"(  c #EFEFEF",
")  c #F1EEEF",
"_  c #F1EFEF",
"`  c #EFEFF0",
"'  c #F0EFF0",
"]  c #EFF0F0",
"[  c #EFF0F1",
"{  c #F0F0F0",
"}  c #F1F0F0",
"|  c #F0F0F1",
" . c #F1F1F1",
".. c #F2F0F0",
"X. c #F2F1F1",
"o. c #F1F1F2",
"O. c #F2F0F2",
"+. c #F2F1F2",
"@. c #F3F1F2",
"#. c #F3F1F3",
"$. c #F1F2F2",
"%. c #F1F2F3",
"&. c #F2F2F2",
"*. c #F3F2F2",
"=. c #F2F2F3",
"-. c #F3F2F3",
";. c #F2F3F3",
":. c #F3F3F3",
">. c #F4F2F2",
",. c #F4F3F3",
"<. c #F3F2F4",
"1. c #F2F3F4",
"2. c #F3F3F4",
"3. c #F4F2F4",
"4. c #F4F3F4",
"5. c #F4F2F5",
"6. c #F4F3F5",
"7. c #F5F3F5",
"8. c #F4F3F6",
"9. c #F5F3F6",
"0. c #F3F4F4",
"q. c #F4F4F4",
"w. c #F4F4F5",
"e. c #F4F5F5",
"r. c #F5F5F5",
"t. c #F6F5F5",
"y. c #F4F5F6",
"u. c #F5F5F6",
"i. c #F6F4F6",
"p. c #F6F5F6",
"a. c #F7F5F6",
"s. c #F5F6F6",
"d. c #F5F6F7",
"f. c #F6F6F6",
"g. c #F6F6F7",
"h. c #F7F6F7",
"j. c #F6F7F7",
"k. c #F7F7F7",
"l. c #F8F7F7",
"z. c #F6F7F8",
"x. c #F7F7F8",
"c. c #F7F8F8",
"v. c #F7F8F9",
"b. c #F8F8F8",
"n. c #F8F8F9",
"m. c #F8F9F9",
"M. c #F9F9F9",
"N. c #F9F9FA",
"B. c #F9FAFA",
"V. c #FAFAFA",
"C. c #FAFAFB",
"Z. c None",
/* pixels */
"Z.Z.Z.Z.Z.Z.Z.Z.Z.Z.Z.Z.Z.Z.Z.Z.Z.Z.Z.Z.Z.Z.Z.Z.",
"Z.Z.Z.Z.* - * * * * * * : * * : * * * * * Z.Z.Z.",
"Z.Z.Z.t ' ' @.@.,.,.,.,.@.@.4.,.@.@.....@.Z.Z.Z.",
"Z.Z.Z.t R R R R ] R ' R / ` ` R R ] / ..0.Z.Z.Z.",
"Z.Z.Z.p @.@.@.@.@.0.0.@.@.@.@.] 0.q.,.@.u.Z.Z.Z.",
"Z.Z.Z.v @.@.u.u.u.u.u.j.j.j.u.u.q.u.q.,.l.Z.Z.Z.",
"Z.Z.Z.f <.0.u.u.u.j.j.m.c.c.j.j.u.u.,.u.l.Z.Z.Z.",
"Z.Z.Z.p u.<.0.u.u.j.m.j.u.u.0.@.@.u.u.u.m.Z.Z.Z.",
"Z.Z.Z.p u.u.z.c.j.m.m.m.m.c.c.m.m.m.u.c.m.Z.Z.Z.",
"Z.Z.Z.j 0.<.@.0.0.q.u.b.u.@.<.<.u.u.u.u.m.Z.Z.Z.",
"Z.Z.Z.b z.z.c.m.m.m.C.m.C.m.c.m.m.m.c.j.m.Z.Z.Z.",
"Z.Z.Z.p u.u.z.z.j.m.m.m.m.b.z.z.j.j.u.u.V.Z.Z.Z.",
"Z.Z.Z.a 4.4.@.@.0.] 0.@.@.u.` @.@.R @.u.m.Z.Z.Z.",
"Z.Z.Z.f u.<.@.0.@.0.@.@.<.] ] @.b.u.u.u.u.Z.Z.Z.",
"Z.Z.Z.n u.u.u.c./ @.c.u.j.c.u.u.0.0.@.....Z.Z.Z.",
"Z.Z.Z.f <.u.0.u.k M u.R u.0.T @.] T J J G Z.Z.Z.",
"Z.Z.Z.p u.@.@.] j b : 9 e 6 5 X G C V V > Z.Z.Z.",
"Z.Z.Z.p 4.u.u.u.v r w u.1 1 / , U A Z 2 Z.Z.Z.Z.",
"Z.Z.Z.j <.` R ] j v * 6 9 9 3   m./ 7 Z.Z.Z.Z.Z.",
"Z.Z.Z.v u.R @.R R ' R J @.9 p $ @.7 Z.Z.Z.Z.Z.Z.",
"Z.Z.Z.p 4.4.4.4.@.@.0.u.@.H m N 4 Z.Z.Z.Z.Z.Z.Z.",
"Z.Z.Z.p ' R Y ' J G T J G A B * Z.Z.Z.Z.Z.Z.Z.Z.",
"Z.Z.Z.. # # $ $ @ % @ @ O o Z.Z.Z.Z.Z.Z.Z.Z.Z.Z.",
"Z.Z.Z.Z.Z.Z.Z.Z.Z.Z.Z.Z.Z.Z.Z.Z.Z.Z.Z.Z.Z.Z.Z.Z."
};
