/* XPM */
static const char *open_xpm[] = {
/* columns rows colors chars-per-pixel */
"24 24 126 2",
"   c #274B78",
".  c #595959",
"X  c #4E617C",
"o  c #646464",
"O  c #6D6D6D",
"+  c #6E6E6E",
"@  c #646B74",
"#  c #707171",
"$  c #747474",
"%  c #777777",
"&  c #797979",
"*  c #7B7B7B",
"=  c #7F7F7F",
"-  c #3869A6",
";  c #4C6C94",
":  c #597394",
">  c #637489",
",  c #747C86",
"<  c #4273AE",
"1  c #4473AF",
"2  c #567CAA",
"3  c #4778B2",
"4  c #4879B3",
"5  c #4A7CB5",
"6  c #527FB5",
"7  c #5A89BE",
"8  c #5C88BD",
"9  c #6680A1",
"0  c #6785AB",
"q  c #688BB6",
"w  c #6392C7",
"e  c #6A91C0",
"r  c #6C93C1",
"t  c #6F96C3",
"y  c #6394CA",
"u  c #6295CB",
"i  c #6395CB",
"p  c #6395CC",
"a  c #6396CC",
"s  c #6496CC",
"d  c #6999CD",
"f  c #6A9ACD",
"g  c #6B9ACD",
"h  c #6F9DCF",
"j  c #7297C4",
"k  c #759CC9",
"l  c #749DCA",
"z  c #709DCF",
"x  c #709ECF",
"c  c #719ECF",
"v  c #729FCF",
"b  c #73A0CF",
"n  c #74A0D0",
"m  c #75A1D0",
"M  c #76A2D0",
"N  c #76A2D1",
"B  c #78A3D1",
"V  c #79A4D1",
"C  c #7AA4D2",
"Z  c #7BA5D2",
"A  c #7CA6D2",
"S  c #7CA6D3",
"D  c #7DA6D3",
"F  c #7DA7D3",
"G  c #7EA7D3",
"H  c #7FA8D3",
"J  c #7FA8D4",
"K  c #808080",
"L  c #818181",
"P  c #828282",
"I  c #848688",
"U  c #888888",
"Y  c #8B8B8B",
"T  c #8C8C8C",
"R  c #8D8D8D",
"E  c #8E8E8E",
"W  c #909090",
"Q  c #929292",
"!  c #939393",
"~  c #939394",
"^  c #949494",
"/  c #949595",
"(  c #959595",
")  c #969696",
"_  c #969797",
"`  c #979898",
"'  c #989898",
"]  c #999999",
"[  c #999A9A",
"{  c #9A9A9A",
"}  c #9B9B9B",
"|  c #9C9C9C",
" . c #9D9D9D",
".. c #9E9E9E",
"X. c #9F9F9F",
"o. c #A0A0A0",
"O. c #A1A1A1",
"+. c #ADADAD",
"@. c #B7B7B7",
"#. c #BABABA",
"$. c #BBBBBB",
"%. c #BCBCBC",
"&. c #BDBDBD",
"*. c #BFBFBF",
"=. c #80A6D1",
"-. c #80A8D4",
";. c #80A9D4",
":. c #81A9D4",
">. c #81AAD4",
",. c #82AAD4",
"<. c #82AAD5",
"1. c #83AAD5",
"2. c #83ABD5",
"3. c #84ABD5",
"4. c #85ABD5",
"5. c #84ACD5",
"6. c #85ACD5",
"7. c #86ACD6",
"8. c #86ADD6",
"9. c #87ADD6",
"0. c #8AABD1",
"q. c #88AED6",
"w. c #8DB1D8",
"e. c #99BADC",
"r. c #C9C9C9",
"t. c None",
/* pixels */
"t.t.t.t.t.t.t.t.t.t.t.t.t.t.t.t.t.t.t.t.t.t.t.t.",
"t.t.t.t.t.t.t.t.t.t.t.t.t.t.t.t.t.t.t.t.t.t.t.t.",
"t.. . . . . . . t.t.t.t.t.t.t.t.t.t.t.t.t.t.t.t.",
"t.r.#.#.#.&.#.&.&.L t.t.t.t.t.t.t.t.t.t.t.t.t.t.",
"t.&.....O.........E t.t.t.t.t.t.t.t.t.t.t.t.t.t.",
"t.@.O...O...O.....] L E W W W W W o t.t.t.t.t.t.",
"t.+.O.O.O...O.....O.......O.O...o.+ t.t.t.t.t.t.",
"t.O.O.............] ..] ..] ] ] ] $ t.t.t.t.t.t.",
"t.' o.|  . .] ] ] ` _ _ _ W _ ! ! $ t.t.t.t.t.t.",
"t.R O.' ' 2 j j j j j j j j j j j j j j j j e t.",
"t.P o.Q W 0 e.q.q.q.q.q.q.7.q.3.7.7.7.7.7.-.0.t.",
"t.* O.Y Y q w.3.3.3.2.2.-.-.2.2.-.-.-.D H B t t.",
"t.+ O.U I r 3.2.2.2.2.2.-.-.H H D J F F b 3.6 t.",
"t.o  .L , k 2.F F -.D =.-.H F F D Z B v v 3.- t.",
"t.t.{ * > =.-.-.F F F F F F F Z B M v v v l t.t.",
"t.t.! % : 3.F D B B M M v b v v v v v v M 8 t.t.",
"t.t.U # 2 Z b v v h h h h b h h h h h h M < t.t.",
"t.t.L @ 8 g g g g g g g g g d g g g d g y t.t.t.",
"t.t.* ; y s s s s a a a a u u u u u u a 3 t.t.t.",
"t.t.X 1 5 5 5 5 5 5 5 5 5 5 5 5 5 5 5 3   t.t.t.",
"t.t.t.t.t.t.t.t.t.t.t.t.t.t.t.t.t.t.t.t.t.t.t.t.",
"t.t.t.t.t.t.t.t.t.t.t.t.t.t.t.t.t.t.t.t.t.t.t.t.",
"t.t.t.t.t.t.t.t.t.t.t.t.t.t.t.t.t.t.t.t.t.t.t.t.",
"t.t.t.t.t.t.t.t.t.t.t.t.t.t.t.t.t.t.t.t.t.t.t.t."
};
