/* XPM */
static const char *save_xpm[] = {
/* columns rows colors chars-per-pixel */
"24 24 231 2",
"   c #414141",
".  c #424242",
"X  c #444444",
"o  c #474747",
"O  c #676767",
"+  c #696A6A",
"@  c #6C6C6C",
"#  c #6E6E6E",
"$  c #7E7E7E",
"%  c #7F7F7F",
"&  c #1F4A86",
"*  c #234D89",
"=  c #2A538D",
"-  c #2F5791",
";  c #2F5993",
":  c #305991",
">  c #325B94",
",  c #365D94",
"<  c #365E94",
"1  c #3E6295",
"2  c #3465A4",
"3  c #3666A5",
"4  c #3969A7",
"5  c #3B6AA7",
"6  c #42689D",
"7  c #42689E",
"8  c #496A98",
"9  c #4A6C9C",
"0  c #51709D",
"q  c #6D7C92",
"w  c #486DA1",
"e  c #4B6FA1",
"r  c #4C6FA1",
"t  c #4C72A5",
"y  c #4572AC",
"u  c #4673AC",
"i  c #5274A2",
"p  c #5375A3",
"a  c #5777A4",
"s  c #5C79A2",
"d  c #5276A8",
"f  c #567AAA",
"g  c #577BAA",
"h  c #567CAF",
"j  c #587AA9",
"k  c #587BAB",
"l  c #597BAB",
"z  c #5A7CAB",
"x  c #5C7CA9",
"c  c #5B7DAC",
"v  c #5A7DAE",
"b  c #4E78B0",
"n  c #4E79B1",
"m  c #517CB2",
"M  c #557EB3",
"N  c #5C80AF",
"B  c #5C81B1",
"V  c #5981B5",
"C  c #5D82B4",
"Z  c #5C83B6",
"A  c #5D84B7",
"S  c #5E84B6",
"D  c #5E85B7",
"F  c #6583AB",
"G  c #6C86A8",
"H  c #6C87AC",
"J  c #6C88AF",
"K  c #6083B2",
"L  c #6284B0",
"P  c #6385B3",
"I  c #6585B2",
"U  c #6386B4",
"Y  c #6889B5",
"T  c #6A8AB6",
"R  c #6489BA",
"E  c #6F8FB9",
"W  c #6C8EBC",
"Q  c #6C8FBE",
"!  c #738DB2",
"~  c #6D90BE",
"^  c #6E91BE",
"/  c #7090BA",
"(  c #7291BA",
")  c #7896BE",
"_  c #7496C1",
"`  c #7596C1",
"'  c #7998C1",
"]  c #7A99C1",
"[  c #7899C3",
"{  c #7B9AC3",
"}  c #7A9AC4",
"|  c #7B9BC4",
" . c #7F9EC6",
".. c #818181",
"X. c #828181",
"o. c #838383",
"O. c #848484",
"+. c #868685",
"@. c #878787",
"#. c #84878A",
"$. c #898989",
"%. c #8A8A8A",
"&. c #8B8B8B",
"*. c #8E8D8B",
"=. c #8F8D8B",
"-. c #8D8D8D",
";. c #92908F",
":. c #92918F",
">. c #909090",
",. c #919191",
"<. c #929292",
"1. c #939393",
"2. c #979797",
"3. c #989898",
"4. c #999999",
"5. c #9A9A9A",
"6. c #9B9B9B",
"7. c #9C9C9C",
"8. c #9D9D9D",
"9. c #9E9E9E",
"0. c #9F9F9F",
"q. c #8498B4",
"w. c #8F9DB2",
"e. c #8097B8",
"r. c #8A9FBE",
"t. c #8CA1BF",
"y. c #97A4B6",
"u. c #99A9BF",
"i. c #A0A0A0",
"p. c #A1A1A1",
"a. c #A2A2A2",
"s. c #A3A3A3",
"d. c #A4A4A4",
"f. c #A5A5A5",
"g. c #A6A6A6",
"h. c #A7A7A7",
"j. c #A8A8A8",
"k. c #A9A9A9",
"l. c #AAAAAA",
"z. c #ABABAB",
"x. c #ACACAC",
"c. c #ADADAD",
"v. c #AEAEAE",
"b. c #AFAFAF",
"n. c #A5AEBA",
"m. c #B0B0B0",
"M. c #B1B1B1",
"N. c #B2B2B2",
"B. c #B3B2B2",
"V. c #B3B3B3",
"C. c #B4B4B4",
"Z. c #B5B5B5",
"A. c #B6B6B6",
"S. c #B7B7B7",
"D. c #B0B5BD",
"F. c #B9B9B9",
"G. c #BABABA",
"H. c #BBBBBB",
"J. c #BCBCBC",
"K. c #BDBDBD",
"L. c #BEBEBE",
"P. c #BFBFBF",
"I. c #819EC5",
"U. c #83A1C7",
"Y. c #84A0C5",
"T. c #8EA3C1",
"R. c #8FA4C2",
"E. c #88A5CA",
"W. c #8CA7CB",
"Q. c #8DA8CD",
"!. c #8FAACD",
"~. c #94A8C5",
"^. c #92ACCE",
"/. c #A9B3C2",
"(. c #AAB5C5",
"). c #B1BBC9",
"_. c #B9C1CD",
"`. c #BFC7D3",
"'. c #C2C2C2",
"]. c #C4C4C4",
"[. c #C7C7C7",
"{. c #C5C7CB",
"}. c #C9C9C9",
"|. c #CACAC9",
" X c #C9CACA",
".X c #CACACA",
"XX c #CBCBCB",
"oX c #CCCCCC",
"OX c #CECECE",
"+X c #CFCFCF",
"@X c #C7CBD0",
"#X c #C6CDD6",
"$X c #D0D0D0",
"%X c #D1D1D1",
"&X c #D2D1D1",
"*X c #D2D2D2",
"=X c #D3D3D3",
"-X c #D3D5D6",
";X c #D4D4D4",
":X c #D5D5D5",
">X c #D4D5D6",
",X c #D6D6D6",
"<X c #D6D6D7",
"1X c #D7D7D7",
"2X c #D8D7D7",
"3X c #D0D4DB",
"4X c #D1D7DF",
"5X c #D8D8D8",
"6X c #D9D9D9",
"7X c #DADADA",
"8X c #DADADB",
"9X c #DBDBDB",
"0X c #DCDCDC",
"qX c #DDDCDC",
"wX c #DDDDDD",
"eX c #DEDEDE",
"rX c #DFDFDF",
"tX c #DADFE4",
"yX c #E1E0E0",
"uX c #E1E1E1",
"iX c #E2E2E2",
"pX c #E3E3E3",
"aX c #E4E4E4",
"sX c #E5E5E5",
"dX c #E6E6E5",
"fX c #E6E6E6",
"gX c #E8E7E7",
"hX c #E8E8E8",
"jX c #EAEAEA",
"kX c #EBEBEB",
"lX c None",
/* pixels */
"lXlXlXlXlXlXlXlXlXlXlXlXlXlXlXlXlXlXlXlXlXlXlXlX",
"lXlXlXlXlXlX> t l l 7 lXlXlXlXlXlXlXlXlXlXlXlXlX",
"lXlXlXlXlX6 T I.^.^.Y.F : lXlXlXlXlXlXlXlXlXlXlX",
"lXlXlXlX< w w d ( !.!.W.T ; lXlXlXlXlXlXlXlXlXlX",
"lXlXlX* = lXlXlX- Y E. .U.f lXlXlXlXlXlXlXlXlXlX",
"lXlXlX& lXlXlXlXlX1 ' | | / < lXlXlXlXlXlXlXlXlX",
"lXlXlXlX+ +.:.:.;.q I | ^ | 8 #.*.*.o.lXlXlXlXlX",
"lXlXlXlX4.4X~.T.T.J c _ R | r e.r.t.).<.lXlXlXlX",
"lXlXlXlX'.tXH 6 K U ' Q C _ ) / z 9 `.M.lXlXlXlX",
"lXlXlX@.fXfX3X! U ^ C M b u b Q x (.0X,X% lXlXlX",
"lXlXlXc.jXpXfX#XF B m 4 2 4 C l u.6X6XpX8.lXlXlX",
"lXlX@ 6XfXaXpXpX_.a M y 2 V z q.-X6X6X6X[.O lXlX",
"lXlX8.fXpXpX6X<X<X/.p C D B G {.=X=X,X6X6X-.lXlX",
"lXlX].pX0X0X6X,X=XOXy.i c s D..XOX=X,X=X,XM.lXlX",
"lX-.6XpX6X6X0X0X,X+X.Xw.0 n..X+X=X=XOX=X6X.X% lX",
"lXd.fXjX0X6X6X6X6X6X6X,X@X,X2X,X=X=X=X6XfX0X4.lX",
"lXd.jX0X0X0X0X0X6X6X0X,X,X6X,X6X,X6X,X,X,X6X4.lX",
"lXi.=X'.'.P.P.'.G.P.P.G.G.C.G.M.C.M.M.c.M.C.%.lX",
"lX8.OXz.-.1.4.i.d.c.c.z.c.i.M.z.z.c.d.z.z.z.+.lX",
"lX8..Xz.%.<.4.i.d.z.z.c.z.i.C.z.c.c.d.d.c.z.o.lX",
"lX8.OXG.M.C.M.M.M.M.M.M.c.z.C.c.M.M.d.c.M.c.o.lX",
"lXo.C.C.C.M.M.M.c.c.z.d.d.d.i.8.8.8.4.1.1.<.@ lX",
"lXlXo o . . . . . . . . . . . . . . . . . o lXlX",
"lXlXlXlXlXlXlXlXlXlXlXlXlXlXlXlXlXlXlXlXlXlXlXlX"
};
