/* XPM */
static const char *switch_xpm[] = {
/* columns rows colors chars-per-pixel */
"24 24 39 1",
"  c #6BB1F4",
". c #6CB1F4",
"X c #6DB2F4",
"o c #6EB2F4",
"O c #6FB2F4",
"+ c #6EB3F4",
"@ c #6FB3F4",
"# c #70B3F4",
"$ c #70B3F5",
"% c #70B4F5",
"& c #71B4F5",
"* c #72B5F5",
"= c #73B5F5",
"- c #74B6F5",
"; c #ADD4F9",
": c #B4D7F9",
"> c #B5D7F9",
", c #B7D9FA",
"< c #BCDBFA",
"1 c #BCDCFA",
"2 c #BFDDFA",
"3 c #C7E0FA",
"4 c #C7E1FA",
"5 c #C6E0FB",
"6 c #CDE4FB",
"7 c #CEE5FC",
"8 c #D1E6FC",
"9 c #D2E7FC",
"0 c #D4E8FC",
"q c #DDEDFD",
"w c #DEEDFD",
"e c #EEF6FE",
"r c #F0F7FE",
"t c #F3F9FE",
"y c #F9FCFE",
"u c #FAFDFE",
"i c #FCFDFF",
"p c #FDFDFF",
"a c #FFFFFF",
/* pixels */
"                        ",
"                        ",
"                        ",
"                        ",
"                        ",
"        +               ",
"       %7               ",
"      %0y               ",
"    X#0pp2222,+         ",
"    #0pppppppt +        ",
"    @9pppppppe 5@       ",
"    XX0pp222<:+t9X      ",
"      X9y ;,>,>yp0#     ",
"      XX6Xeppppppp9@    ",
"        XXepppppppq%    ",
"          24444ppq-     ",
"              Xtq%      ",
"              X9%X      ",
"               %X       ",
"                X       ",
"                        ",
"                        ",
"                        ",
"                        "
};
