/* XPM */
static const char *switch_xpm[] = {
/* columns rows colors chars-per-pixel */
"24 24 53 1",
"  c #5C5C5C",
". c #686868",
"X c #6E6E6E",
"o c #747474",
"O c #757575",
"+ c #767676",
"@ c #777777",
"# c #787878",
"$ c #797979",
"% c #7A7A7A",
"& c #7B7B7B",
"* c #7C7C7C",
"= c #7D7D7D",
"- c #7E7E7E",
"; c #828282",
": c #848484",
"> c #858585",
", c #868686",
"< c #878787",
"1 c #888888",
"2 c #898989",
"3 c #8A8A8A",
"4 c #8B8B8B",
"5 c #8C8C8C",
"6 c #8D8D8D",
"7 c #8E8E8E",
"8 c #8F8F8F",
"9 c #909090",
"0 c #919191",
"q c #929292",
"w c #969696",
"e c #999999",
"r c #9A9A9A",
"t c #9C9C9C",
"y c #9D9D9D",
"u c #9E9E9E",
"i c #A0A0A0",
"p c #A1A1A1",
"a c #A2A2A2",
"s c #A3A3A3",
"d c #A4A4A4",
"f c #A5A5A5",
"g c #A6A6A6",
"h c #A7A7A7",
"j c #A8A8A8",
"k c #A9A9A9",
"l c #AAAAAA",
"z c #ABABAB",
"x c #ACACAC",
"c c #ADADAD",
"v c #AEAEAE",
"b c #AFAFAF",
"n c None",
/* pixels */
"nnnnnnnnnnnnnnnnnnnnnnnn",
"nnnnnnnnnnnnnnnnnnnnnnnn",
"nnnnnnnnnnnnnnnnnnnnnnnn",
"nnnnnnnnnnnnnnnnnnnnnnnn",
"nnnnnnnnnnnnnnnnnnennnnn",
"nnnnnnnnnnnnnnnnnnssnnnn",
"nnnnnnnnnnnnnnnnnndds&nn",
"nnnnnnnnskkkddddsskddu=n",
"nnnnnnnndbccckckkdsuew9X",
"nnnnnnnnkbcccku94>>>444 ",
"nnnnnsnn4996=OOOOO446>nn",
"nnnndknnnnnnnnnnnn>6>nnn",
"nn&dkdnnnnnnnnnnnn4;nnnn",
"n&ddds4>>>444464nn&nnnnn",
"=sdde>>>44666966nnnnnnnn",
".ud9>>4>44666999nnnnnnnn",
"nn6;>>O&&O&&=&==nnnnnnnn",
"nnn=>>nnnnnnnnnnnnnnnnnn",
"nnnn=>nnnnnnnnnnnnnnnnnn",
"nnnnnOnnnnnnnnnnnnnnnnnn",
"nnnnnnnnnnnnnnnnnnnnnnnn",
"nnnnnnnnnnnnnnnnnnnnnnnn",
"nnnnnnnnnnnnnnnnnnnnnnnn",
"nnnnnnnnnnnnnnnnnnnnnnnn"
};
