/* XPM */
static const char *about_button_xpm[] = {
/* columns rows colors chars-per-pixel */
"24 24 203 2",
"   c #1A5EBE",
".  c #1B5EBE",
"X  c #1B5FBF",
"o  c #0453C2",
"O  c #175DC1",
"+  c #125CC6",
"@  c #155DC4",
"#  c #165FC4",
"$  c #175EC5",
"%  c #175FC5",
"&  c #1B5FC0",
"*  c #1A5EC1",
"=  c #185FC5",
"-  c #1B61C4",
";  c #1A60C5",
":  c #1B60C5",
">  c #1A61C5",
",  c #1B61C5",
"<  c #1B62C5",
"1  c #1960C6",
"2  c #1B61C7",
"3  c #1A62C7",
"4  c #1B62C7",
"5  c #1C62C6",
"6  c #1C63C7",
"7  c #1160CF",
"8  c #1C63C8",
"9  c #1E65C9",
"0  c #1863CC",
"q  c #1C65CC",
"w  c #1F67CD",
"e  c #1E67CE",
"r  c #1663D1",
"t  c #1665D3",
"y  c #1C68D4",
"u  c #2367C7",
"i  c #2568C7",
"p  c #2066CB",
"a  c #2067CD",
"s  c #266ACC",
"d  c #276CCF",
"f  c #3372CD",
"g  c #226AD1",
"h  c #236BD2",
"j  c #226DD7",
"k  c #266ED4",
"l  c #276FD4",
"z  c #266ED5",
"x  c #276FD5",
"c  c #246ED7",
"v  c #2B6FD1",
"b  c #236ED8",
"n  c #236FDB",
"m  c #246ED8",
"M  c #256FDA",
"N  c #2670D7",
"B  c #2B71D3",
"V  c #2D70D2",
"C  c #2970D4",
"Z  c #2970D5",
"A  c #2971D5",
"S  c #2A70D4",
"D  c #2B71D4",
"F  c #2A71D5",
"G  c #2B71D5",
"H  c #2C72D5",
"J  c #2C72D6",
"K  c #2D73D6",
"L  c #2D73D7",
"P  c #2E74D7",
"I  c #2770D9",
"U  c #2670DB",
"Y  c #2772DC",
"T  c #2871D8",
"R  c #2972D8",
"E  c #2A72D9",
"W  c #2B73DA",
"Q  c #2D74D9",
"!  c #2F75D8",
"~  c #2F75D9",
"^  c #2C75DB",
"/  c #2F75DA",
"(  c #2973DD",
")  c #2B75DE",
"_  c #2C74DC",
"`  c #2E76DC",
"'  c #2F77DD",
"]  c #2F78DE",
"[  c #3173D3",
"{  c #3075D6",
"}  c #3076D8",
"|  c #3076DA",
" . c #3177DA",
".. c #3177DB",
"X. c #3177DC",
"o. c #3077DD",
"O. c #3077DF",
"+. c #3278DA",
"@. c #3278DB",
"#. c #3479DA",
"$. c #3278DC",
"%. c #3379DC",
"&. c #3379DD",
"*. c #3078DF",
"=. c #3379DE",
"-. c #347ADD",
";. c #367BDD",
":. c #347ADE",
">. c #357BDE",
",. c #357BDF",
"<. c #357CDF",
"1. c #367CDF",
"2. c #377DDF",
"3. c #387AD8",
"4. c #397BD8",
"5. c #3A7CDA",
"6. c #3B7DDA",
"7. c #3B7DDB",
"8. c #3C7EDA",
"9. c #3C7EDC",
"0. c #3E7FDD",
"q. c #3D7FDE",
"w. c #3179E0",
"e. c #327AE0",
"r. c #377DE0",
"t. c #417CCF",
"y. c #447DCE",
"u. c #477FD0",
"i. c #3E80DD",
"p. c #3F81DE",
"a. c #3F81DF",
"s. c #3E81E1",
"d. c #4E87D7",
"f. c #4180DA",
"g. c #4082DF",
"h. c #4082E0",
"j. c #4183E0",
"k. c #4082E1",
"l. c #4183E1",
"z. c #4484E0",
"x. c #4786E1",
"c. c #4586E3",
"v. c #4686E2",
"b. c #4486E4",
"n. c #4586E4",
"m. c #4A88E1",
"M. c #4888E3",
"N. c #4989E3",
"B. c #4A89E4",
"V. c #4A8AE5",
"C. c #4B8BE5",
"Z. c #508CE2",
"A. c #548FE2",
"S. c #538EE6",
"D. c #538FE6",
"F. c #5390E6",
"G. c #5791E6",
"H. c #5992E4",
"J. c #5A93E5",
"K. c #5A93E6",
"L. c #5B94E5",
"P. c #5B94E6",
"I. c #5B94E7",
"U. c #5C94E5",
"Y. c #5C95E7",
"T. c #6097E6",
"R. c #6197E6",
"E. c #6199E9",
"W. c #6299E9",
"Q. c #6299EA",
"!. c #629AEA",
"~. c #639AEA",
"^. c #70A1E7",
"/. c #72A3E9",
"(. c #84ABE3",
"). c #87B1EC",
"_. c #88B1EC",
"`. c #96B7E5",
"'. c #9DBDEB",
"]. c #B5CCEC",
"[. c #BCD1ED",
"{. c #BFD5F4",
"}. c #C3D7F3",
"|. c #C7D8F0",
" X c #C5D8F4",
".X c #C6D9F5",
"XX c #CDDCF2",
"oX c #CBDDF5",
"OX c #D1E0F6",
"+X c #D4E3F7",
"@X c #DBE7F7",
"#X c #D6E4F8",
"$X c #DBE7F8",
"%X c #E1EBF8",
"&X c #E6EEF8",
"*X c #EFF4FA",
"=X c #F1F5FB",
"-X c #F1F5FC",
";X c #F2F6FC",
":X c #F4F8FD",
">X c #F5F8FD",
",X c #FFFFFF",
"<X c None",
/* pixels */
"<X<X<X<X<X<X<X<X<X<X<X<X<X<X<X<X<X<X<X<X<X<X<X<X",
"<X<X<X1 0 1 1 @ 1 1 1 1 @ 1 @ 1 = 1 @ 0 1 <X<X<X",
"<X<X@ v b.B.B.B.B.C.C.C.B.C.C.B.B.B.B.b.V 1 <X<X",
"<X1 d m.T.E.E.E.Y.~.~.~.!.E.E.E.E.~.~.U.l.q 1 <X",
"<X= x.R.G.x.m.B.x.x.p.0.s.x.M.M.m.B.M.B.g.) 1 <X",
"<X= S.Y.l.:.2.2.r.9 u i { s.r.r.2.2.e.2.r.:.6 <X",
"<X@ D.Y.s.:.e.e.:.+ ].=X;X{.Y e.:.e.2.e.r.X.1 <X",
"<X= D.Y.l.:.r.:.1.b +X,X,X#XY 1.r.:.2.e.r.O.6 <X",
"<X= S.Y.l.:.:.:.1.e./._.)./.' :.:.:.:.1.1.:.6 <X",
"<X= F.I.g.#.:.:.F h r 7 t b :.:.:.:.:.#.:.' 1 <X",
"<X= F.K.p. .:. .6 t.y.y.d.Z.:.@.:.@.:.:.:.' 1 <X",
"<X= S.U.0.Q X. .h %X,X,X,XoXm  . . . . .@.^ 1 <X",
"<X= S.P.0.Q  .Q Q (.&X,X,X Xm  . .X. .X.X._ 6 <X",
"<X= F.P.p.Q  . . .s |.,X,X Xm  . . . . .@.Q - <X",
"<X1 S.K.0.K  .P F o [.,X,X}.y  .Q { P  .{ T 6 <X",
"<X@ S.K.5.K K K p f XX,X,XOXf.K P P P P Q Q 1 <X",
"<X1 F.P.5.F K K 8 `.=X,X,X=X'.F F P K K K F 4 <X",
"<X@ F.P.5.F K F x @X>X>X>X>X@Xk F K K F K U 4 <X",
"<X= F.U.5.F K K K #.3.3.3.3.3.K K K K K P T 4 <X",
"<X1 m.Z.5.v K F F v k k k k F F K F K V B N 6 <X",
"<X1 v #.{ K B K K K K K K K F K V K K F k q 6 <X",
"<X<XO q U U N U I T m I m I I T U I I m a * <X<X",
"<X<X<X. 6 - . . . . . . . . . . . X - 6 . <X<X<X",
"<X<X<X<X<X<X<X<X<X<X<X<X<X<X<X<X<X<X<X<X<X<X<X<X"
};
