/* XPM */
static const char *log_xpm[] = {
/* columns rows colors chars-per-pixel */
"24 24 107 2",
"   c #020766",
".  c #090966",
"X  c #111F7B",
"o  c #14217B",
"O  c #1B267B",
"+  c #24297B",
"@  c #2B2D7B",
"#  c #32337E",
"$  c #5F5F66",
"%  c #606067",
"&  c #616168",
"*  c #696972",
"=  c #0F2A8E",
"-  c #112886",
";  c #10298A",
":  c #0D2D93",
">  c #0A329C",
",  c #2F3587",
"<  c #2C368B",
"1  c #29388E",
"2  c #313483",
"3  c #253C94",
"4  c #283A90",
"5  c #223E99",
"6  c #0737A2",
"7  c #0539A6",
"8  c #023CAA",
"9  c #1E429E",
"0  c #20409B",
"q  c #0E41A2",
"w  c #1A45A3",
"e  c #1849A7",
"r  c #0463E4",
"t  c #0A66E4",
"y  c #0E69E4",
"u  c #1967E1",
"i  c #146DE4",
"p  c #1C72E4",
"a  c #2276E4",
"s  c #2678E4",
"d  c #2D7BE3",
"f  c #3C7CE3",
"g  c #3481E4",
"h  c #3984E4",
"j  c #3F89E4",
"k  c #3C94FF",
"l  c #3F9AFF",
"z  c #4D87DF",
"x  c #4F89DF",
"c  c #5783D6",
"v  c #5985D6",
"b  c #558CDF",
"n  c #5A8FDF",
"m  c #5E92DF",
"M  c #678DD6",
"N  c #698FD6",
"B  c #6B91D7",
"V  c #6495DF",
"C  c #6C94DA",
"Z  c #6C9ADF",
"A  c #7195D7",
"S  c #7296D8",
"D  c #4483E4",
"F  c #4987E4",
"G  c #4C89E4",
"H  c #4096FF",
"J  c #459AFF",
"K  c #4A9EFF",
"L  c #6196E3",
"P  c #4EA3FF",
"I  c #53A3FF",
"U  c #59A7FF",
"Y  c #5DA9FF",
"T  c #63ADFF",
"R  c #6CB3FF",
"E  c #72B6FF",
"W  c #76B9FF",
"Q  c #7BBCFF",
"!  c #84848D",
"~  c #909096",
"^  c #94949A",
"/  c #9D9DA2",
"(  c #A3A3A8",
")  c #80BEFF",
"_  c #84C1FF",
"`  c #8BC5FF",
"'  c #93CAFF",
"]  c #9ACFFF",
"[  c #B0DCFF",
"{  c #C2C2C4",
"}  c #C6C6CA",
"|  c #CBCBD6",
" . c #CDCDD8",
".. c #D4D4DC",
"X. c #D9D9DF",
"o. c #DCDBE3",
"O. c #DFDFE8",
"+. c #E4E4E5",
"@. c #E5E4EA",
"#. c #E9E7EC",
"$. c #EBEAEE",
"%. c #EDEDF2",
"&. c #F3F2F5",
"*. c #F6F6F8",
"=. c #F8F7F8",
"-. c #FDFDFD",
";. c None",
/* pixels */
";.;.;.;.;.;.;.;.;.;.;.;.;.;.;.;.;.;.;.;.;.;.;.;.",
";.;.;.;.;.;.;.;.;.;.;.;.;.;.;.;.;.;.;.;.;.;.;.;.",
";.. @ @ @ @ + + + + O O O O O O O o o o o o   ;.",
";.# [ ] ] ' ` ` _ ) Q Q W R R T Y Y Y I P P - ;.",
";.2 ' W E R R T T T Y Y I I I K P H H l k H ; ;.",
";.2 L v v v v v c c c v v c c c c c v v v d ; ;.",
";., L -.-.-.-.-.-.-.-.-.-.-.-.-.-.=.-.=.-.G = ;.",
";., Z -.%.+.+.=.-.-.%.#.+.+.+.+.+.+.+.#.=.G : ;.",
";.1 V -.( * * } -.-./ * * * * * * * * ~ =.F : ;.",
";.1 V -.-.-.-.-.-.-.-.-.-.-.-.-.*.*.&.&.*.F : ;.",
";.4 V -.-.-.-.-.-.-.-.-.=.-.=.=.&.&.%.%.*.D > ;.",
";.3 V -.-.-.-.-.-.-.-.=.=.&.&.&.%.%.%.%.&.D > ;.",
";.3 m -./ & & { -.-./ & & & & & $ $ & ! &.D > ;.",
";.5 n -.-.-.-.-.-.=.*.=.*.&.&.&.%.$.@.@.%.D 6 ;.",
";.0 b -.-.-.-.-.-.=.*.*.*.&.%.%.%.@.@.+.#.f 6 ;.",
";.0 b -.-.-.-.-.-.=.*.*.&.%.%.%.#.@.@.O.#.f 6 ;.",
";.w b =./ & $ { =.=.^ & & & & $ & $ $ ! @.f 7 ;.",
";.w b -.%.#.+.%.=.&.#.o.o.X....... .| | O.f 8 ;.",
";.w x -.-.-.-.=.=.*.&.&.$.$.#.#.+.O.o.o.+.f 8 ;.",
";.e D S S S S S C S B B B C B B N N N M N u 8 ;.",
";.q j h g g g d d s s a p p i i i y t t r r 8 ;.",
";.;.;.;.;.;.;.;.;.;.;.;.;.;.;.;.;.;.;.;.;.;.;.;.",
";.;.;.;.;.;.;.;.;.;.;.;.;.;.;.;.;.;.;.;.;.;.;.;.",
";.;.;.;.;.;.;.;.;.;.;.;.;.;.;.;.;.;.;.;.;.;.;.;."
};
