/* XPM */
static const char *open_xpm[] = {
/* columns rows colors chars-per-pixel */
"24 24 152 2",
"   c #C36300",
".  c #DB6E00",
"X  c #DB6F00",
"o  c #DC6E00",
"O  c #DD6E00",
"+  c #DC6F00",
"@  c #DD6F00",
"#  c #DE6F00",
"$  c #DC7000",
"%  c #DC7100",
"&  c #DD7100",
"*  c #DC7200",
"=  c #DC7300",
"-  c #DD7300",
";  c #DC7400",
":  c #DC7500",
">  c #DE7400",
",  c #DC7600",
"<  c #DC7700",
"1  c #DE7700",
"2  c #DC7800",
"3  c #DE7800",
"4  c #DE7900",
"5  c #DE7A00",
"6  c #DE7A01",
"7  c #DE7B01",
"8  c #DE7C01",
"9  c #DE7D02",
"0  c #E37A00",
"q  c #E37B00",
"w  c #E27C00",
"e  c #E68300",
"r  c #E38B00",
"t  c #EE8E00",
"y  c #EE8F00",
"u  c #ED9300",
"i  c #EF9400",
"p  c #E59B00",
"a  c #ED9C00",
"s  c #ED9D00",
"d  c #F49200",
"f  c #F09400",
"g  c #F19600",
"h  c #F09B00",
"j  c #F59F00",
"k  c #F89A00",
"l  c #F99C00",
"z  c #FA9D00",
"x  c #E5A100",
"c  c #ECAB00",
"v  c #F0A000",
"b  c #F0A200",
"n  c #F3A400",
"m  c #F2A500",
"M  c #F0A700",
"N  c #FCA000",
"B  c #FFA500",
"V  c #F0A800",
"C  c #F3A800",
"Z  c #F5AA00",
"A  c #F0AD00",
"S  c #F0AF00",
"D  c #F9AA01",
"F  c #FFA900",
"G  c #FCAD09",
"H  c #FDAE0A",
"J  c #EEB200",
"K  c #F0B000",
"L  c #F2B000",
"P  c #F3B200",
"I  c #FFB000",
"U  c #FFB100",
"Y  c #FFB500",
"T  c #FFB501",
"R  c #FDBA00",
"E  c #FFBA00",
"W  c #FFBB00",
"Q  c #FFBA01",
"!  c #FFBB02",
"~  c #FFBE00",
"^  c #FFBC04",
"/  c #FFBC05",
"(  c #F9BA0B",
")  c #FAC000",
"_  c #FFC000",
"`  c #FFC100",
"'  c #F8C500",
"]  c #F8C600",
"[  c #FDC700",
"{  c #FFC600",
"}  c #FFC700",
"|  c #FFC104",
" . c #FFC704",
".. c #FFCB00",
"X. c #FFCC00",
"o. c #FFCD00",
"O. c #FFCC01",
"+. c #FFC309",
"@. c #FFC30C",
"#. c #FFC40D",
"$. c #FFC40E",
"%. c #FFC90C",
"&. c #FFCF0D",
"*. c #F8D000",
"=. c #F8D200",
"-. c #FFD200",
";. c #FDD500",
":. c #FFD800",
">. c #F8DC00",
",. c #FFD309",
"<. c #FCC712",
"1. c #FFCA14",
"2. c #FFCC1A",
"3. c #FFCC1B",
"4. c #FFCC1C",
"5. c #FFD11B",
"6. c #FFD71F",
"7. c #F8E100",
"8. c #F8E200",
"9. c #FFE600",
"0. c #FFD427",
"q. c #FFD52B",
"w. c #FFD52E",
"e. c #FFDA32",
"r. c #FFDE30",
"t. c #FFDD3F",
"y. c #FFDD40",
"u. c #FFDE44",
"i. c #FFE242",
"p. c #FFE44A",
"a. c #FFEA4F",
"s. c #FFE951",
"d. c #FFEA50",
"f. c #FFEB50",
"g. c #FFEC50",
"h. c #FFED50",
"j. c #FFE658",
"k. c #FFE65D",
"l. c #FFE65E",
"z. c #FFED74",
"x. c #FFEE7C",
"c. c #FFF17D",
"v. c #FFF488",
"b. c #FFF489",
"n. c #FFF493",
"m. c #FFF893",
"M. c #FFF49E",
"N. c #FFFAC1",
"B. c #FFFAC4",
"V. c #FFFCCB",
"C. c #FFFCCC",
"Z. c None",
/* pixels */
"Z.Z.Z.Z.Z.Z.Z.Z.Z.Z.Z.Z.Z.Z.Z.Z.Z.Z.Z.Z.Z.Z.Z.Z.",
"Z.Z.Z.Z.Z.Z.Z.Z.Z.Z.Z.Z.Z.Z.Z.Z.Z.Z.Z.Z.Z.Z.Z.Z.",
"Z.Z.Z.Z.Z.Z.Z.Z.Z.Z.Z.- p x x x x x x x x r o Z.",
"Z.Z.Z.Z.Z.Z.Z.Z.Z.Z.- J 9.9.9.9.9.9.9.9.9.9.c . ",
"Z.Z.o . . . X X . . > ' :.:.:.:.:.:.:.:.:.:.;.* ",
"Z.w P ) ) ~ ) R ) ) [ ..................X.X.X.: ",
"  Z m a s s a a a a C R ~ ~ ~ ~ ~ ~ ~ ~ ~ ~ ~ : ",
"- u P *.>.8.8.>.*.' m j I I I I I I I I I I I * ",
"- <.m.C.C.C.C.C.C.C.v.g k k k z z z k z z N B * ",
"4 b.B.B.B.B.B.B.B.B.N.( g a b C c P S m v i d * ",
"9 n.M.M.M.M.M.M.M.M.M.c.f.f.f.f.f.g.g.f.f.r.Z - ",
"9 z.x.x.x.x.x.x.c.x.x.x.x.x.x.x.x.x.x.x.x.x.i.- ",
"9 j.l.l.l.l.l.l.l.l.l.l.l.l.l.l.l.l.l.l.l.l.p.2 ",
"4 t.u.u.u.u.u.u.u.u.u.u.u.u.u.u.u.u.y.e.6.,.-.2 ",
"4 q.w.w.w.w.w.w.w.w.w.w.w.w.w.0.4.,.....X.X.X.: ",
"4 2.4.4.4.4.4.4.4.4.2.2.1.#. .[ [ [ [ [ [ [ ..> ",
"4 #.#.#.#.#.<.@.#.+.| | | ~ | | ~ | | ~ | | | > ",
"4 / / / / / R R R R R R R R R R R R R R R R R : ",
"> T T T T T T T T T T T T T T T T T T T T T T > ",
"> G H H H H H H H H H H H H H H H H H H H H G * ",
"o y F F F F F F F F F F F F F F F F F F F F y . ",
"Z.o q e e e e e e e e e e e e e e e e e e q o Z.",
"Z.Z.Z.Z.Z.Z.Z.Z.Z.Z.Z.Z.Z.Z.Z.Z.Z.Z.Z.Z.Z.Z.Z.Z.",
"Z.Z.Z.Z.Z.Z.Z.Z.Z.Z.Z.Z.Z.Z.Z.Z.Z.Z.Z.Z.Z.Z.Z.Z."
};
