/* XPM */
static const char *save_xpm[] = {
/* columns rows colors chars-per-pixel */
"24 24 83 1",
"  c #356ABB",
". c #366ABA",
"X c #3F71BF",
"o c #5B87C9",
"O c #5C87C9",
"+ c #5E88CA",
"@ c #658DCA",
"# c #648DCB",
"$ c #668ECB",
"% c #628CCC",
"& c #658ECD",
"* c #668ECC",
"= c #6890CD",
"- c #6992CF",
"; c #6A92CF",
": c #7195CD",
"> c #6B94D0",
", c #6D96D3",
"< c #6F98D5",
"1 c #7099D6",
"2 c #719AD7",
"3 c #7B9DD1",
"4 c #749DDA",
"5 c #749DDB",
"6 c #7BA4E2",
"7 c #7BA4E3",
"8 c #7BA5E3",
"9 c #7DA6E4",
"0 c #7FA9E7",
"q c #81A2D4",
"w c #8BAAD7",
"e c #86A7D9",
"r c #8AA9D8",
"t c #8DACD8",
"y c #89ACDE",
"u c #8DAFDF",
"i c #97B5DF",
"p c #80AAE9",
"a c #92B2E0",
"s c #93B2E1",
"d c #9ABAE9",
"f c #98BBED",
"g c #99BBED",
"h c #9DBDED",
"j c #9EBEEE",
"k c #A1BBE1",
"l c #A9C6EF",
"z c #B0CBF1",
"x c #C9D8EE",
"c c #C1D5F1",
"v c #C3D8F3",
"b c #C5D9F3",
"n c #C8DBF4",
"m c #D3E0F1",
"M c #D8E5F6",
"N c #D9E6F6",
"B c #DAE6F6",
"V c #E0EBF8",
"C c #E0EBF9",
"Z c #E1ECF9",
"A c #E2ECF9",
"S c #E3ECF9",
"D c #E2EDF9",
"F c #E3EDF9",
"G c #E5EEF9",
"H c #E8F0FA",
"J c #E9F0FA",
"K c #E9F1FB",
"L c #EAF1FB",
"P c #EAF2FB",
"I c #EBF2FB",
"U c #EDF3FB",
"Y c #EEF4FC",
"T c #F1F6FD",
"R c #F1F7FD",
"E c #F2F7FD",
"W c #F3F7FD",
"Q c #F5F9FD",
"! c #F4F9FE",
"~ c #F5FAFE",
"^ c #F6FAFE",
"/ c #F7FBFE",
"( c None",
/* pixels */
"((((((((((((((((((((((((",
"((((((((((((((((((((((((",
"((((((((((((((((((((((((",
"(((Xoo+********#OO((((((",
"(((olfzTYYY!!UUGkue(((((",
"(((ofpjY3IE!IIIBw,y*((((",
"(((ofpjY:!EIIFBMw1,i*(((",
"(((ofpjYx!IIFBMMw1,#c.((",
"(((ofpfFGFAAABFFt1,@c.((",
"(((ofp7>;;;;;;;>@1,@c.((",
"(((ofppp8866666641,@c.((",
"(((ofppp8866666111@@c.((",
"(((ofpp96666666<11#@c.((",
"(((ofpp9666666511>##c.((",
"(((of006666668211@@@c.((",
"(((of0jdddddddssswq@c.((",
"(((ofpTGSSSSSSSSSSm@c.((",
"(((ofp/!QQQQQQQQQQm@c.((",
"(((ofpTAVVVVVVVVVVm@c.((",
"(((ofpWASSSSSSSSSSm#c.((",
"(((Obv/!!/!QQ!!!!!Icn.((",
"(((...................((",
"((((((((((((((((((((((((",
"(((((((((((((((((((((((("
};
